name rise30.2954peak35.7071fall66.7804.mot
datacolumns 19
datarows 21
range 17.64493900000000 17.67827000000000
endheader
time	ground_force1_vx	ground_force1_vy	ground_force1_vz	ground_force1_px	ground_force1_py	ground_force1_pz	ground_force2_vx	ground_force2_vy	ground_force2_vz	ground_force2_px	ground_force2_py	ground_force2_pz	ground_torque1_x	ground_torque1_y	ground_torque1_z	ground_torque2_x	ground_torque2_y	ground_torque2_z	
17.64493900000000	10.83599300000000	724.74087699999995	43.32014800000000	0.14800500000000	0.00000000000000	0.12162500000000	0.00000000000000	0.00000000000000	0.00000000000000	0.00000000000000	0.00000000000000	0.00000000000000	0.00000000000000	11.27897600000000	0.00000000000000	0.00000000000000	0.00000000000000	0.00000000000000	
17.64660600000000	10.35524700000000	725.73066900000003	43.36016700000000	0.14685800000000	0.00000000000000	0.12159500000000	0.00000000000000	0.00000000000000	0.00000000000000	0.00000000000000	0.00000000000000	0.00000000000000	0.00000000000000	11.34515800000000	0.00000000000000	0.00000000000000	0.00000000000000	0.00000000000000	
17.64826800000000	9.86067100000000	726.73110399999996	43.40279100000000	0.14570400000000	0.00000000000000	0.12156400000000	0.00000000000000	0.00000000000000	0.00000000000000	0.00000000000000	0.00000000000000	0.00000000000000	0.00000000000000	11.41505000000000	0.00000000000000	0.00000000000000	0.00000000000000	0.00000000000000	
17.64994100000000	9.35257900000000	727.74166800000000	43.44779000000000	0.14454300000000	0.00000000000000	0.12153400000000	0.00000000000000	0.00000000000000	0.00000000000000	0.00000000000000	0.00000000000000	0.00000000000000	0.00000000000000	11.48854000000000	0.00000000000000	0.00000000000000	0.00000000000000	0.00000000000000	
17.65160100000000	8.83133100000000	728.76191500000004	43.49493700000000	0.14337600000000	0.00000000000000	0.12150300000000	0.00000000000000	0.00000000000000	0.00000000000000	0.00000000000000	0.00000000000000	0.00000000000000	0.00000000000000	11.56551000000000	0.00000000000000	0.00000000000000	0.00000000000000	0.00000000000000	
17.65327200000000	8.29732800000000	729.79146600000001	43.54401900000000	0.14220600000000	0.00000000000000	0.12147300000000	0.00000000000000	0.00000000000000	0.00000000000000	0.00000000000000	0.00000000000000	0.00000000000000	0.00000000000000	11.64583300000000	0.00000000000000	0.00000000000000	0.00000000000000	0.00000000000000	
17.65493600000000	7.75100900000000	730.82999700000005	43.59482600000000	0.14103300000000	0.00000000000000	0.12144100000000	0.00000000000000	0.00000000000000	0.00000000000000	0.00000000000000	0.00000000000000	0.00000000000000	0.00000000000000	11.72937400000000	0.00000000000000	0.00000000000000	0.00000000000000	0.00000000000000	
17.65660100000000	7.19285300000000	731.87724300000002	43.64716400000000	0.13985900000000	0.00000000000000	0.12141000000000	0.00000000000000	0.00000000000000	0.00000000000000	0.00000000000000	0.00000000000000	0.00000000000000	0.00000000000000	11.81599400000000	0.00000000000000	0.00000000000000	0.00000000000000	0.00000000000000	
17.65826700000000	6.62337000000000	732.93298500000003	43.70084400000000	0.13868400000000	0.00000000000000	0.12137800000000	0.00000000000000	0.00000000000000	0.00000000000000	0.00000000000000	0.00000000000000	0.00000000000000	0.00000000000000	11.90554300000000	0.00000000000000	0.00000000000000	0.00000000000000	0.00000000000000	
17.65993800000000	6.04310400000000	733.99704599999995	43.75569100000000	0.13751100000000	0.00000000000000	0.12134500000000	0.00000000000000	0.00000000000000	0.00000000000000	0.00000000000000	0.00000000000000	0.00000000000000	0.00000000000000	11.99786900000000	0.00000000000000	0.00000000000000	0.00000000000000	0.00000000000000	
17.66160400000000	5.45263100000000	735.06928500000004	43.81154100000000	0.13634100000000	0.00000000000000	0.12131200000000	0.00000000000000	0.00000000000000	0.00000000000000	0.00000000000000	0.00000000000000	0.00000000000000	0.00000000000000	12.09281200000000	0.00000000000000	0.00000000000000	0.00000000000000	0.00000000000000	
17.66327400000000	4.85255100000000	736.14959099999999	43.86824000000000	0.13517400000000	0.00000000000000	0.12127800000000	0.00000000000000	0.00000000000000	0.00000000000000	0.00000000000000	0.00000000000000	0.00000000000000	0.00000000000000	12.19020400000000	0.00000000000000	0.00000000000000	0.00000000000000	0.00000000000000	
17.66493900000000	4.24348800000000	737.23787500000003	43.92564700000000	0.13401300000000	0.00000000000000	0.12124300000000	0.00000000000000	0.00000000000000	0.00000000000000	0.00000000000000	0.00000000000000	0.00000000000000	0.00000000000000	12.28987400000000	0.00000000000000	0.00000000000000	0.00000000000000	0.00000000000000	
17.66660300000000	3.62609200000000	738.33406700000000	43.98363300000000	0.13285700000000	0.00000000000000	0.12120800000000	0.00000000000000	0.00000000000000	0.00000000000000	0.00000000000000	0.00000000000000	0.00000000000000	0.00000000000000	12.39164600000000	0.00000000000000	0.00000000000000	0.00000000000000	0.00000000000000	
17.66827300000000	3.00102900000000	739.43810499999995	44.04208300000000	0.13170900000000	0.00000000000000	0.12117100000000	0.00000000000000	0.00000000000000	0.00000000000000	0.00000000000000	0.00000000000000	0.00000000000000	0.00000000000000	12.49533900000000	0.00000000000000	0.00000000000000	0.00000000000000	0.00000000000000	
17.66993400000000	2.36898300000000	740.54993000000002	44.10089200000000	0.13056800000000	0.00000000000000	0.12113400000000	0.00000000000000	0.00000000000000	0.00000000000000	0.00000000000000	0.00000000000000	0.00000000000000	0.00000000000000	12.60076600000000	0.00000000000000	0.00000000000000	0.00000000000000	0.00000000000000	
17.67159900000000	1.73065100000000	741.66948200000002	44.15996900000000	0.12943700000000	0.00000000000000	0.12109600000000	0.00000000000000	0.00000000000000	0.00000000000000	0.00000000000000	0.00000000000000	0.00000000000000	0.00000000000000	12.70773800000000	0.00000000000000	0.00000000000000	0.00000000000000	0.00000000000000	
17.67327200000000	1.08674300000000	742.79669000000001	44.21923800000000	0.12831500000000	0.00000000000000	0.12105700000000	0.00000000000000	0.00000000000000	0.00000000000000	0.00000000000000	0.00000000000000	0.00000000000000	0.00000000000000	12.81606200000000	0.00000000000000	0.00000000000000	0.00000000000000	0.00000000000000	
17.67493400000000	0.43797700000000	743.93146800000000	44.27863200000000	0.12720400000000	0.00000000000000	0.12101700000000	0.00000000000000	0.00000000000000	0.00000000000000	0.00000000000000	0.00000000000000	0.00000000000000	0.00000000000000	12.92554000000000	0.00000000000000	0.00000000000000	0.00000000000000	0.00000000000000	
17.67660000000000	-0.21492200000000	745.07370800000001	44.33810000000000	0.12610500000000	0.00000000000000	0.12097600000000	0.00000000000000	0.00000000000000	0.00000000000000	0.00000000000000	0.00000000000000	0.00000000000000	0.00000000000000	13.03597400000000	0.00000000000000	0.00000000000000	0.00000000000000	0.00000000000000	
17.67827000000000	-0.87122500000000	746.22327600000006	44.39760200000000	0.12501700000000	0.00000000000000	0.12093400000000	0.00000000000000	0.00000000000000	0.00000000000000	0.00000000000000	0.00000000000000	0.00000000000000	0.00000000000000	13.14716300000000	0.00000000000000	0.00000000000000	0.00000000000000	0.00000000000000	
